<svg id="visual" viewBox="0 0 1000 200" width="1000" height="200" xmlns="http://www.w3.org/2000/svg" xmlns:xlink="http://www.w3.org/1999/xlink" version="1.1"><path d="M0 13L15.2 13C30.3 13 60.7 13 91 13.7C121.3 14.3 151.7 15.7 182 16C212.3 16.3 242.7 15.7 273 18.7C303.3 21.7 333.7 28.3 364 30C394.3 31.7 424.7 28.3 454.8 28.3C485 28.3 515 31.7 545.2 31.3C575.3 31 605.7 27 636 25C666.3 23 696.7 23 727 23C757.3 23 787.7 23 818 22.7C848.3 22.3 878.7 21.7 909 21.7C939.3 21.7 969.7 22.3 984.8 22.7L1000 23L1000 0L984.8 0C969.7 0 939.3 0 909 0C878.7 0 848.3 0 818 0C787.7 0 757.3 0 727 0C696.7 0 666.3 0 636 0C605.7 0 575.3 0 545.2 0C515 0 485 0 454.8 0C424.7 0 394.3 0 364 0C333.7 0 303.3 0 273 0C242.7 0 212.3 0 182 0C151.7 0 121.3 0 91 0C60.7 0 30.3 0 15.2 0L0 0Z" fill="#ffffff"></path><path d="M0 33L15.2 34.7C30.3 36.3 60.7 39.7 91 44C121.3 48.3 151.7 53.7 182 52.3C212.3 51 242.7 43 273 41C303.3 39 333.7 43 364 47C394.3 51 424.7 55 454.8 59C485 63 515 67 545.2 64.3C575.3 61.7 605.7 52.3 636 49C666.3 45.7 696.7 48.3 727 52C757.3 55.7 787.7 60.3 818 58C848.3 55.7 878.7 46.3 909 44.3C939.3 42.3 969.7 47.7 984.8 50.3L1000 53L1000 21L984.8 20.7C969.7 20.3 939.3 19.7 909 19.7C878.7 19.7 848.3 20.3 818 20.7C787.7 21 757.3 21 727 21C696.7 21 666.3 21 636 23C605.7 25 575.3 29 545.2 29.3C515 29.7 485 26.3 454.8 26.3C424.7 26.3 394.3 29.7 364 28C333.7 26.3 303.3 19.7 273 16.7C242.7 13.7 212.3 14.3 182 14C151.7 13.7 121.3 12.3 91 11.7C60.7 11 30.3 11 15.2 11L0 11Z" fill="#dafbf4"></path><path d="M0 77L15.2 79.7C30.3 82.3 60.7 87.7 91 89.3C121.3 91 151.7 89 182 86.3C212.3 83.7 242.7 80.3 273 80.7C303.3 81 333.7 85 364 84.7C394.3 84.3 424.7 79.7 454.8 84.3C485 89 515 103 545.2 102.7C575.3 102.3 605.7 87.7 636 80.7C666.3 73.7 696.7 74.3 727 77.3C757.3 80.3 787.7 85.7 818 83.7C848.3 81.7 878.7 72.3 909 72.3C939.3 72.3 969.7 81.7 984.8 86.3L1000 91L1000 51L984.8 48.3C969.7 45.7 939.3 40.3 909 42.3C878.7 44.3 848.3 53.7 818 56C787.7 58.3 757.3 53.7 727 50C696.7 46.3 666.3 43.7 636 47C605.7 50.3 575.3 59.7 545.2 62.3C515 65 485 61 454.8 57C424.7 53 394.3 49 364 45C333.7 41 303.3 37 273 39C242.7 41 212.3 49 182 50.3C151.7 51.7 121.3 46.3 91 42C60.7 37.7 30.3 34.3 15.2 32.7L0 31Z" fill="#b3f7e9"></path><path d="M0 165L15.2 161C30.3 157 60.7 149 91 147.3C121.3 145.7 151.7 150.3 182 152C212.3 153.7 242.7 152.3 273 149.3C303.3 146.3 333.7 141.7 364 138.7C394.3 135.7 424.7 134.3 454.8 137.3C485 140.3 515 147.7 545.2 152.7C575.3 157.7 605.7 160.3 636 161.3C666.3 162.3 696.7 161.7 727 157.3C757.3 153 787.7 145 818 141.3C848.3 137.7 878.7 138.3 909 139.3C939.3 140.3 969.7 141.7 984.8 142.3L1000 143L1000 89L984.8 84.3C969.7 79.7 939.3 70.3 909 70.3C878.7 70.3 848.3 79.7 818 81.7C787.7 83.7 757.3 78.3 727 75.3C696.7 72.3 666.3 71.7 636 78.7C605.7 85.7 575.3 100.3 545.2 100.7C515 101 485 87 454.8 82.3C424.7 77.7 394.3 82.3 364 82.7C333.7 83 303.3 79 273 78.7C242.7 78.3 212.3 81.7 182 84.3C151.7 87 121.3 89 91 87.3C60.7 85.7 30.3 80.3 15.2 77.7L0 75Z" fill="#86f2de"></path><path d="M0 201L15.2 201C30.3 201 60.7 201 91 201C121.3 201 151.7 201 182 201C212.3 201 242.7 201 273 201C303.3 201 333.7 201 364 201C394.3 201 424.7 201 454.8 201C485 201 515 201 545.2 201C575.3 201 605.7 201 636 201C666.3 201 696.7 201 727 201C757.3 201 787.7 201 818 201C848.3 201 878.7 201 909 201C939.3 201 969.7 201 984.8 201L1000 201L1000 141L984.8 140.3C969.7 139.7 939.3 138.3 909 137.3C878.7 136.3 848.3 135.7 818 139.3C787.7 143 757.3 151 727 155.3C696.7 159.7 666.3 160.3 636 159.3C605.7 158.3 575.3 155.7 545.2 150.7C515 145.7 485 138.3 454.8 135.3C424.7 132.3 394.3 133.7 364 136.7C333.7 139.7 303.3 144.3 273 147.3C242.7 150.3 212.3 151.7 182 150C151.7 148.3 121.3 143.7 91 145.3C60.7 147 30.3 155 15.2 159L0 163Z" fill="#47ecd4"></path></svg>