<svg id="visual" viewBox="0 0 960 100" width="960" height="100" xmlns="http://www.w3.org/2000/svg" xmlns:xlink="http://www.w3.org/1999/xlink" version="1.1"><rect x="0" y="0" width="960" height="100" fill="#ffffff"></rect><path d="M0 40L8.8 39C17.7 38 35.3 36 53.2 36.7C71 37.3 89 40.7 106.8 44.8C124.7 49 142.3 54 160 56.7C177.7 59.3 195.3 59.7 213.2 56.2C231 52.7 249 45.3 266.8 40.7C284.7 36 302.3 34 320 35.5C337.7 37 355.3 42 373.2 47.2C391 52.3 409 57.7 426.8 58.3C444.7 59 462.3 55 480 51.7C497.7 48.3 515.3 45.7 533.2 45.7C551 45.7 569 48.3 586.8 50.7C604.7 53 622.3 55 640 54.7C657.7 54.3 675.3 51.7 693.2 52.7C711 53.7 729 58.3 746.8 61.2C764.7 64 782.3 65 800 60.3C817.7 55.7 835.3 45.3 853.2 43C871 40.7 889 46.3 906.8 47.8C924.7 49.3 942.3 46.7 951.2 45.3L960 44L960 101L951.2 101C942.3 101 924.7 101 906.8 101C889 101 871 101 853.2 101C835.3 101 817.7 101 800 101C782.3 101 764.7 101 746.8 101C729 101 711 101 693.2 101C675.3 101 657.7 101 640 101C622.3 101 604.7 101 586.8 101C569 101 551 101 533.2 101C515.3 101 497.7 101 480 101C462.3 101 444.7 101 426.8 101C409 101 391 101 373.2 101C355.3 101 337.7 101 320 101C302.3 101 284.7 101 266.8 101C249 101 231 101 213.2 101C195.3 101 177.7 101 160 101C142.3 101 124.7 101 106.8 101C89 101 71 101 53.2 101C35.3 101 17.7 101 8.8 101L0 101Z" fill="#46ecd5" stroke-linecap="round" stroke-linejoin="miter"></path></svg>